<svg xmlns="http://www.w3.org/2000/svg" viewBox="0 0 773.13 123.76"><defs><style>.a{fill:#fff;}</style></defs><title>logo</title><path class="a" d="M34.88,45a4.76,4.76,0,0,1-4.72-4.71,4.65,4.65,0,0,1,1.4-3.41,4.5,4.5,0,0,1,3.32-1.39h82.54a4.75,4.75,0,0,1,4.79,4.8,4.52,4.52,0,0,1-1.39,3.32,4.62,4.62,0,0,1-3.4,1.39H80.91V154.5a4.67,4.67,0,0,1-1.36,3.4,4.48,4.48,0,0,1-3.36,1.39,4.76,4.76,0,0,1-4.8-4.79V45Z" transform="translate(-30.16 -35.53)"/><path class="a" d="M179.72,35.53A35,35,0,0,1,205.48,46.2,35.22,35.22,0,0,1,216.15,72a35.05,35.05,0,0,1-10.6,25.76,41.27,41.27,0,0,1-12.37,8.35L221.72,152a4.4,4.4,0,0,1,.85,2.55,4.75,4.75,0,0,1-4.79,4.79,5,5,0,0,1-4.18-2.55L183.35,108.4q-1.62.15-3.63.15h-27v46a4.75,4.75,0,0,1-4.79,4.79,4.54,4.54,0,0,1-3.33-1.39,4.62,4.62,0,0,1-1.39-3.4V40.33a4.64,4.64,0,0,1,1.39-3.41,4.54,4.54,0,0,1,3.33-1.39Zm-27,9.51V99h27a26.94,26.94,0,0,0,26.92-27,25.46,25.46,0,0,0-7.89-19,25.83,25.83,0,0,0-19-8Z" transform="translate(-30.16 -35.53)"/><path class="a" d="M251.53,40.33a4.69,4.69,0,0,1,1.36-3.41,4.48,4.48,0,0,1,3.36-1.39,4.75,4.75,0,0,1,4.8,4.8V154.5a4.75,4.75,0,0,1-4.8,4.79,4.48,4.48,0,0,1-3.36-1.39,4.67,4.67,0,0,1-1.36-3.4Z" transform="translate(-30.16 -35.53)"/><path class="a" d="M370,35.53a4.54,4.54,0,0,1,3.33,1.39,4.64,4.64,0,0,1,1.39,3.41A4.75,4.75,0,0,1,370,45H298.52V92.62h52.37a4.8,4.8,0,1,1,0,9.59H298.52V154.5a4.67,4.67,0,0,1-1.36,3.4,4.48,4.48,0,0,1-3.36,1.39,4.76,4.76,0,0,1-4.8-4.79V40.33a4.65,4.65,0,0,1,1.4-3.41,4.6,4.6,0,0,1,3.4-1.39Z" transform="translate(-30.16 -35.53)"/><path class="a" d="M476.93,35.53a4.53,4.53,0,0,1,3.32,1.39,4.64,4.64,0,0,1,1.39,3.41A4.75,4.75,0,0,1,476.93,45H405.45V92.62h52.37a4.8,4.8,0,1,1,0,9.59H405.45v47.57h71.48a4.75,4.75,0,0,1,4.71,4.72,4.62,4.62,0,0,1-1.39,3.4,4.53,4.53,0,0,1-3.32,1.39h-76.2a4.75,4.75,0,0,1-4.79-4.79V40.33a4.75,4.75,0,0,1,4.79-4.8Z" transform="translate(-30.16 -35.53)"/><path class="a" d="M591.67,137.56a4.76,4.76,0,0,1,4.8,4.79,4.49,4.49,0,0,1-1.16,3.18,67.48,67.48,0,0,1-18.41,10.25,61.95,61.95,0,0,1-44.25-1.2,66.91,66.91,0,0,1-20.11-13.39,66.56,66.56,0,0,1-13.38-20.11,59.58,59.58,0,0,1-4.72-23.67,59.53,59.53,0,0,1,18.1-43.7q18.18-18.18,43.78-18.18a60.12,60.12,0,0,1,39.22,14.08,4.62,4.62,0,0,1,1.39,3.4,4.75,4.75,0,0,1-4.72,4.72,5.72,5.72,0,0,1-3.94-1.86Q574.89,45,556.32,45a50.52,50.52,0,0,0-37.05,15.4,50.38,50.38,0,0,0-15.32,37,50.47,50.47,0,0,0,15.32,37.05,52.46,52.46,0,0,0,69.85,3.8A4.34,4.34,0,0,1,591.67,137.56Z" transform="translate(-30.16 -35.53)"/><path class="a" d="M754.1,53.4" transform="translate(-30.16 -35.53)"/><path class="a" d="M705.36,152.41a5.27,5.27,0,0,0-.46,2.09,4.75,4.75,0,0,0,4.8,4.79,4.67,4.67,0,0,0,3.32-1.23,5.42,5.42,0,0,0,1.09-1.7l9.78-25.1H713.6Z" transform="translate(-30.16 -35.53)"/><path class="a" d="M794.09,156.36a5.78,5.78,0,0,0,1.16,1.78,4.84,4.84,0,0,0,3.32,1.15,4.54,4.54,0,0,0,3.33-1.39,4.62,4.62,0,0,0,1.39-3.4,5.27,5.27,0,0,0-.46-2.09l-8.22-21.15H784.35Z" transform="translate(-30.16 -35.53)"/><path class="a" d="M754.1,53.4l13.23,34.06h10.26L758.74,38.93a5.58,5.58,0,0,0-1.24-2,4.62,4.62,0,0,0-3.4-1.39,4.55,4.55,0,0,0-3.33,1.31,6.44,6.44,0,0,0-1.24,2.09L730.65,87.46h10.27Z" transform="translate(-30.16 -35.53)"/><path class="a" d="M667.66,45h36.51a4.64,4.64,0,0,0,3.41-1.39A4.56,4.56,0,0,0,709,40.33a4.75,4.75,0,0,0-4.8-4.8H621.64a4.54,4.54,0,0,0-3.33,1.39,4.64,4.64,0,0,0-1.39,3.41A4.75,4.75,0,0,0,621.64,45h36.51V87.46h9.51Z" transform="translate(-30.16 -35.53)"/><path class="a" d="M658.15,154.5a4.75,4.75,0,0,0,4.79,4.79,4.5,4.5,0,0,0,3.37-1.39,4.7,4.7,0,0,0,1.35-3.4V131.26h-9.51Z" transform="translate(-30.16 -35.53)"/><path class="a" d="M531.06,122V98.08a1.87,1.87,0,0,1,.14-.71,1.69,1.69,0,0,1,.39-.59,1.74,1.74,0,0,1,.58-.39,1.85,1.85,0,0,1,.72-.13,1.75,1.75,0,0,1,1.62,1l10.32,20.63,10.32-20.63a1.87,1.87,0,0,1,2.33-.85,1.69,1.69,0,0,1,.59.39,1.84,1.84,0,0,1,.39.59,1.87,1.87,0,0,1,.13.71V122a1.72,1.72,0,0,1-.53,1.29,1.83,1.83,0,0,1-2.58,0A1.72,1.72,0,0,1,555,122V105.82l-8.54,17.05a1.71,1.71,0,0,1-1.58.91,1.75,1.75,0,0,1-1.67-1.1l-8.45-16.86V122a1.81,1.81,0,0,1-1.82,1.82,1.83,1.83,0,0,1-1.83-1.82Z" transform="translate(-30.16 -35.53)"/><path class="a" d="M586.06,120.14a1.72,1.72,0,0,1,1.29.53,1.76,1.76,0,0,1,.54,1.29,1.83,1.83,0,0,1-1.83,1.82H570.15a1.81,1.81,0,0,1-.72-.13,1.91,1.91,0,0,1-.58-.39,1.74,1.74,0,0,1-.39-.58,1.85,1.85,0,0,1-.14-.72V98.08a1.87,1.87,0,0,1,.14-.71,1.69,1.69,0,0,1,.39-.59,1.74,1.74,0,0,1,.58-.39,1.81,1.81,0,0,1,.72-.13h15.91a1.83,1.83,0,0,1,1.83,1.82,1.76,1.76,0,0,1-.54,1.29,1.72,1.72,0,0,1-1.29.53H572v8.3h10.12a1.81,1.81,0,0,1,1.82,1.82,1.79,1.79,0,0,1-.53,1.29,1.75,1.75,0,0,1-1.29.53H572v8.3Z" transform="translate(-30.16 -35.53)"/><path class="a" d="M604.54,96.26a13.25,13.25,0,0,1,9.72,4,13.79,13.79,0,0,1,3,4.43,13.55,13.55,0,0,1,1,5.29,13.76,13.76,0,0,1-13.76,13.76h-5.3a1.75,1.75,0,0,1-.72-.14,2,2,0,0,1-.58-.39,1.72,1.72,0,0,1-.4-.58,1.7,1.7,0,0,1-.14-.71V98.08a1.7,1.7,0,0,1,.14-.71,1.72,1.72,0,0,1,.4-.58,2,2,0,0,1,.58-.39,1.75,1.75,0,0,1,.72-.14Zm0,23.88a9.76,9.76,0,0,0,7.14-3,10.31,10.31,0,0,0,2.23-3.26,10.07,10.07,0,0,0,.74-3.9A10.16,10.16,0,0,0,604.54,99.9h-3.48v20.24Z" transform="translate(-30.16 -35.53)"/><path class="a" d="M630.42,120a1.73,1.73,0,0,1-.36-1.1,1.87,1.87,0,0,1,.14-.71,1.79,1.79,0,0,1,.39-.59,1.84,1.84,0,0,1,.57-.38,1.9,1.9,0,0,1,.73-.14,1.7,1.7,0,0,1,1.53.84,4.76,4.76,0,0,0,1.8,1.69,5,5,0,0,0,2.34.57,4.45,4.45,0,0,0,1.85-.39,5.07,5.07,0,0,0,1.52-1,4.93,4.93,0,0,0,1-1.54,4.8,4.8,0,0,0,.38-1.89,4.63,4.63,0,0,0-.35-1.78,5,5,0,0,0-1-1.46,4.9,4.9,0,0,0-1.4-1,4.55,4.55,0,0,0-1.69-.48,7,7,0,0,1-2.57-.73,7.58,7.58,0,0,1-2.08-1.55,7.19,7.19,0,0,1-1.4-2.19,6.75,6.75,0,0,1-.51-2.61,7.06,7.06,0,0,1,.64-3A7.22,7.22,0,0,1,633.88,98h0a6.85,6.85,0,0,1,4.65-1.72,7.23,7.23,0,0,1,1.72.21,6.9,6.9,0,0,1,1.66.65,7.5,7.5,0,0,1,1.5,1.1,7.64,7.64,0,0,1,1.25,1.53,1.93,1.93,0,0,1,.25,1,1.88,1.88,0,0,1-.13.72,1.91,1.91,0,0,1-.39.58,1.81,1.81,0,0,1-.59.38,1.7,1.7,0,0,1-.71.14,1.56,1.56,0,0,1-1.09-.39,4.42,4.42,0,0,1-.42-.44c-.13-.17-.27-.36-.42-.58a2.5,2.5,0,0,0-1.12-.9,4,4,0,0,0-1.54-.3,3.37,3.37,0,0,0-1.28.26,3.74,3.74,0,0,0-1.1.74,3.53,3.53,0,0,0-.78,1.1,3.16,3.16,0,0,0-.3,1.37,3.28,3.28,0,0,0,.25,1.28,3.42,3.42,0,0,0,.68,1.07,3.64,3.64,0,0,0,1,.78,3.33,3.33,0,0,0,1.25.35,8,8,0,0,1,3,.82,8.66,8.66,0,0,1,2.47,1.84,8.5,8.5,0,0,1,1.68,2.59,7.85,7.85,0,0,1,.62,3.08,8.12,8.12,0,0,1-3,6.53h0a8.16,8.16,0,0,1-5.44,2,8.3,8.3,0,0,1-2-.25,8.79,8.79,0,0,1-3.71-1.93A8.59,8.59,0,0,1,630.42,120Z" transform="translate(-30.16 -35.53)"/><path class="a" d="M655.35,122V98.08a1.87,1.87,0,0,1,.13-.71,2,2,0,0,1,.39-.59,1.74,1.74,0,0,1,.58-.39,1.88,1.88,0,0,1,.72-.13h5.3a8.69,8.69,0,0,1,2.4.32,9.36,9.36,0,0,1,2.18.93A9.49,9.49,0,0,1,668.9,99a8.3,8.3,0,0,1,1.44,1.85,9.11,9.11,0,0,1,.93,2.17,9.13,9.13,0,0,1-8.8,11.52H659V122a1.81,1.81,0,0,1-1.82,1.82,1.75,1.75,0,0,1-1.29-.53A1.72,1.72,0,0,1,655.35,122ZM659,99.9v10.95h3.48a5.34,5.34,0,0,0,2.11-.43,5.61,5.61,0,0,0,2.92-2.91,5.45,5.45,0,0,0,0-4.29,5.61,5.61,0,0,0-2.93-2.9,5.39,5.39,0,0,0-2.1-.42Z" transform="translate(-30.16 -35.53)"/><path class="a" d="M677.33,121.13l9.19-23.64a1.81,1.81,0,0,1,1.73-1.23A1.78,1.78,0,0,1,690,97.49l9.22,23.73a1.84,1.84,0,0,1,.14.74,1.81,1.81,0,0,1-1.82,1.82,1.66,1.66,0,0,1-1.27-.53,1.86,1.86,0,0,1-.42-.58l-3.18-8.18h-8.81l-3.2,8.18a2,2,0,0,1-.41.58,1.75,1.75,0,0,1-1.29.53,1.72,1.72,0,0,1-1.29-.53,1.75,1.75,0,0,1-.52-1.29A1.93,1.93,0,0,1,677.33,121.13Zm13.92-10.28-3-7.73-3,7.73Z" transform="translate(-30.16 -35.53)"/><circle class="a" cx="723.93" cy="73.83" r="4.6"/><circle class="a" cx="750.77" cy="73.83" r="4.6"/><circle class="a" cx="696.91" cy="73.83" r="4.6"/></svg>